<svg xmlns="http://www.w3.org/2000/svg" xmlns:xlink="http://www.w3.org/1999/xlink" xmlns:sketch="http://www.bohemiancoding.com/sketch/ns" width="143px" height="122px" viewBox="0 0 143 122" version="1.1">
    <!-- Generator: Sketch 3.2.2 (9983) - http://www.bohemiancoding.com/sketch -->
    <title>Slice 1</title>
    <desc>Created with Sketch.</desc>
    <defs>
        <path id="path-1" d="M0.689 121.7 L142.586 121.7 L142.586 0.5 L0.689 0.5"/>
    </defs>
    <g id="Page-1" stroke="none" stroke-width="1" fill="none" fill-rule="evenodd" sketch:type="MSPage">
        <g id="logo" sketch:type="MSLayerGroup" transform="translate(-3.000000, -3.000000)">
            <g id="Group-20" transform="translate(-223.000000, -24.000000)">
                <g id="Group-13" transform="translate(226.000000, 27.000000)">
                    <path d="M38.6818 69.1 C26.9248 53.1 28.3 30.5 42.7 16 C58.7058 0.1 84.6 0.1 100.5 16 C116.4928 32 116.5 57.9 100.5 73.8 C86.0718 88.3 63.5 89.6 47.5 77.9 M46.0408 61.8 C38.1868 49.9 39.5 33.7 50 23.3 C61.9378 11.3 81.3 11.3 93.3 23.3 C105.2798 35.2 105.3 54.6 93.3 66.6 C82.8388 77.1 66.7 78.4 54.8 70.5 M53.4858 54.3 C49.5028 46.6 50.7 36.9 57.2 30.5 C65.1718 22.5 78.1 22.5 86.1 30.5 C94.0678 38.5 94.1 51.4 86.1 59.4 C79.6298 65.8 69.9 67.1 62.2 63.1" id="Stroke-1" stroke="#D9222A" stroke-width="7.208" stroke-linecap="round" sketch:type="MSShapeGroup"/>
                    <mask id="mask-2" sketch:name="Clip 4" fill="white">
                        <use xlink:href="#path-1"/>
                    </mask>
                    <g id="Clip-4"/>
                    <path d="M6.6091 121.7 C4.9331 121.7 2.9 121.4 1.2 120.8 C0.8181 120.7 0.7 120.5 0.7 120.2 C0.6891 120.1 0.7 120 0.8 119.8 L1.4871 117.7 C1.5671 117.5 1.7 117.2 2 117.2 C2.1571 117.2 2.3 117.3 2.5 117.3 C3.7261 117.8 5.2 118.1 6.5 118.1 C7.5601 118.1 8.9 117.6 8.9 116.3 C8.9201 115.3 8.2 114.8 7.4 114.5 L3.9071 112.9 C2.0041 112 0.7 110.4 0.7 108.3 C0.7431 105 4 103.1 7 103.1 C8.8981 103.1 10.5 103.4 12.1 104.1 C12.5261 104.3 12.7 104.5 12.7 104.7 C12.6791 104.8 12.6 105 12.6 105.1 L11.7771 107.1 C11.6481 107.5 11.5 107.6 11.3 107.6 C11.1361 107.6 11 107.5 10.8 107.5 C9.7451 107 8.4 106.6 7.3 106.6 C6.2721 106.6 5.1 107 5.1 108.2 C5.1161 109.1 6.1 109.6 6.8 109.9 L9.7451 111.2 C11.7771 112.1 13.1 113.5 13.1 115.8 C13.0911 119.6 10.1 121.7 6.6 121.7" id="Fill-3" fill="#D9222A" sketch:type="MSShapeGroup" mask="url(#mask-2)"/>
                    <path d="M22.9512 106.6 L21.9482 106.6 L21.9482 112.2 L23.2342 112.2 C25.1102 112.2 26.3 111.2 26.3 109.3 C26.2692 107.3 24.9 106.6 23 106.6 M27.1202 120.8 L23.5452 115.3 L21.9482 115.3 L21.9482 120.6 C21.9482 121 21.8 121.4 21.3 121.4 L18.5772 121.4 C18.0632 121.4 17.9 121.1 17.9 120.6 L17.8592 104.4 C17.8592 103.7 18 103.5 18.7 103.5 L22.6182 103.5 C24.8022 103.5 27.4 103.7 29 105.4 C29.9242 106.5 30.4 107.9 30.4 109.3 C30.3862 111.5 29.4 113.5 27.3 114.5 L27.3232 114.6 L31.5422 120.6 C31.6482 120.7 31.7 120.9 31.7 121 C31.6962 121.2 31.5 121.4 31.3 121.4 L28.2762 121.4 C27.7602 121.4 27.4 121.2 27.1 120.8" id="Fill-5" fill="#D9222A" sketch:type="MSShapeGroup" mask="url(#mask-2)"/>
                    <path d="M49.0239 120.8 C49.0239 121.2 48.9 121.4 48.5 121.4 L47.1479 121.4 C46.8109 121.4 46.6 121.2 46.6 120.8 L46.6319 113 L38.3469 113 L38.3469 120.8 C38.3469 121.2 38.2 121.4 37.8 121.4 L36.4719 121.4 C36.1349 121.4 36 121.2 36 120.8 L35.9559 104.1 C35.9559 103.8 36.1 103.6 36.5 103.6 L37.8349 103.6 C38.1679 103.6 38.3 103.8 38.3 104.1 L38.3469 111.1 L46.6319 111.1 L46.6319 104.1 C46.6319 103.8 46.8 103.6 47.1 103.6 L48.5369 103.6 C48.8699 103.6 49 103.8 49 104.1 L49.0239 120.8 Z" id="Fill-6" fill="#2E78B1" sketch:type="MSShapeGroup" mask="url(#mask-2)"/>
                    <path d="M64.9058 120.9 C64.9058 121.2 64.8 121.4 64.4 121.4 L55.4148 121.4 C54.9778 121.4 54.9 121.2 54.9 120.8 L54.8738 104.1 C54.8738 103.8 55 103.6 55.4 103.6 L64.4198 103.6 C64.8048 103.6 64.9 103.8 64.8 104.1 L64.7258 105.1 C64.7028 105.5 64.5 105.5 64 105.5 L57.2678 105.5 L57.2678 111.1 L63.3148 111.1 C63.6728 111.1 63.8 111.3 63.8 111.6 L63.8258 112.5 C63.8258 112.9 63.7 113 63.3 113 L57.2678 113 L57.2678 119.5 L64.3678 119.5 C64.7518 119.5 64.9 119.6 64.9 119.9 L64.9058 120.9 Z" id="Fill-7" fill="#2E78B1" sketch:type="MSShapeGroup" mask="url(#mask-2)"/>
                    <path d="M78.3986 114.3 L76.3396 108.4 C76.0316 107.5 75.8 107 75.7 106.6 L75.7206 106.6 C75.5906 107 75.4 107.5 75.1 108.5 L72.9696 114.3 L78.3986 114.3 Z M80.7126 120.9 L79.0156 116.1 L72.3536 116.1 L70.5776 120.9 C70.4496 121.2 70.3 121.4 70 121.4 L68.4696 121.4 C68.1076 121.4 68.2 121.1 68.2 120.8 L74.6936 104 C74.7686 103.8 74.9 103.6 75.2 103.6 L76.5206 103.6 C76.7526 103.6 76.9 103.7 77 103.9 L83.3386 120.8 C83.4396 121.1 83.4 121.4 83 121.4 L81.4086 121.4 C80.9706 121.4 80.8 121.3 80.7 120.9 L80.7126 120.9 Z" id="Fill-8" fill="#2E78B1" sketch:type="MSShapeGroup" mask="url(#mask-2)"/>
                    <path d="M91.4221 120.8 C91.4221 121.2 91.3 121.4 91 121.4 L89.4911 121.4 C89.1581 121.4 89 121.2 89 120.8 L89.0261 105.5 L84.0621 105.5 C83.7551 105.5 83.7 105.4 83.7 105.1 L83.6501 104 C83.6501 103.7 83.8 103.6 84 103.6 L96.6181 103.6 C96.9501 103.6 97.1 103.8 97 104 L96.8761 105.1 C96.8211 105.5 96.6 105.5 96.2 105.5 L91.4221 105.5 L91.4221 120.8 Z" id="Fill-9" fill="#2E78B1" sketch:type="MSShapeGroup" mask="url(#mask-2)"/>
                    <path d="M111.2873 120.9 C111.2873 121.2 111.2 121.4 110.8 121.4 L101.7973 121.4 C101.3603 121.4 101.3 121.2 101.3 120.8 L101.2583 104.1 C101.2583 103.8 101.4 103.6 101.7 103.6 L110.8003 103.6 C111.1863 103.6 111.2 103.8 111.2 104.1 L111.1073 105.1 C111.0843 105.5 110.9 105.5 110.4 105.5 L103.6493 105.5 L103.6493 111.1 L109.6973 111.1 C110.0543 111.1 110.2 111.3 110.2 111.6 L110.2113 112.5 C110.2113 112.9 110.1 113 109.7 113 L103.6493 113 L103.6493 119.5 L110.7483 119.5 C111.1333 119.5 111.3 119.6 111.3 119.9 L111.2873 120.9 Z" id="Fill-10" fill="#2E78B1" sketch:type="MSShapeGroup" mask="url(#mask-2)"/>
                    <path d="M120.3531 105.5 L118.7051 105.5 L118.7051 112.3 L120.6851 112.3 C122.9531 112.3 124.6 111.1 124.6 108.9 C124.5991 106.3 123 105.5 120.4 105.5 L120.3531 105.5 Z M121.1771 114.1 L118.7051 114.1 L118.7051 120.8 C118.7051 121.1 118.6 121.4 118.2 121.4 L116.8041 121.4 C116.4661 121.4 116.3 121.2 116.3 120.8 L116.3131 104.2 C116.3131 103.8 116.4 103.6 116.8 103.6 L120.5311 103.6 C122.8481 103.6 124.8 104.1 126 105.5 C126.6551 106.3 127 107.5 127 108.8 C127.0131 111.3 125.4 113 123.4 113.7 L123.4401 113.8 L127.6341 120.8 C127.7871 121 127.7 121.4 127.4 121.4 L125.8311 121.4 C125.4451 121.4 125.2 121.2 125 120.9 L121.1771 114.1 Z" id="Fill-11" fill="#2E78B1" sketch:type="MSShapeGroup" mask="url(#mask-2)"/>
                    <path d="M140.2189 116.7 C140.2189 115.3 139.2 114.5 138 113.8 L134.6879 112 C132.9919 111.1 131.9 109.7 131.9 107.9 C131.8569 104.9 134.6 103.3 137.3 103.3 C138.8289 103.3 140.1 103.5 141.4 104.1 C141.6599 104.2 141.8 104.3 141.8 104.5 C141.8119 104.6 141.8 104.7 141.8 104.8 L141.3749 105.8 C141.3009 106 141.2 106.1 141 106.1 C140.9139 106.1 140.8 106.1 140.7 106 C139.6779 105.6 138.5 105.3 137.4 105.3 C136.0009 105.3 134.3 105.9 134.3 107.7 C134.3279 109 135.3 109.8 136.3 110.3 L139.0849 111.8 C141.0939 112.9 142.6 114.1 142.6 116.5 C142.5859 119.9 139.8 121.6 136.6 121.6 C135.2259 121.6 133.7 121.4 132.3 120.9 C131.9599 120.8 131.9 120.5 132 120.2 L132.2979 119.1 C132.3969 118.8 132.7 118.7 133 118.8 C134.1239 119.3 135.4 119.6 136.6 119.6 C138.3669 119.6 140.2 118.8 140.2 116.7" id="Fill-12" fill="#2E78B1" sketch:type="MSShapeGroup" mask="url(#mask-2)"/>
                </g>
            </g>
        </g>
    </g>
</svg>
